<?xml version="1.0" encoding="utf-8"?>
<!-- Generator: Adobe Illustrator 21.0.0, SVG Export Plug-In . SVG Version: 6.00 Build 0)  -->
<svg version="1.1" id="Layer_1" xmlns="http://www.w3.org/2000/svg" xmlns:xlink="http://www.w3.org/1999/xlink" x="0px" y="0px"
	 viewBox="0 0 169.8 21.1" style="enable-background:new 0 0 169.8 21.1;" xml:space="preserve">
<g>
	<g id="header_logo_8_">
		<g>
			<path d="M4.3,0.3h8.3l0.6,12.4L19,0.3h8.3L23,20.8h-5.2l3.3-15.6l-7.3,15.6H9.1L8.5,5.2L5.2,20.8H0L4.3,0.3z"/>
			<path d="M28.4,10.6c0.7-3.3,2.2-5.9,4.4-7.8c2.3-1.9,5-2.8,8.4-2.8c3.4,0,5.8,0.9,7.3,2.7c1.5,1.8,1.8,4.4,1.1,7.7
				c-0.5,2.4-1.3,4.3-2.5,5.9c-1.1,1.5-2.5,2.7-4.2,3.6c-1.7,0.8-3.7,1.3-6,1.3c-2.3,0-4.1-0.4-5.5-1.1c-1.4-0.7-2.3-1.9-2.9-3.5
				C27.9,15,27.9,13,28.4,10.6z M34.7,10.6c-0.4,2.1-0.4,3.5,0.2,4.4c0.6,0.9,1.5,1.4,2.8,1.4c1.4,0,2.5-0.4,3.4-1.3
				c0.9-0.9,1.6-2.5,2.1-4.8C43.7,8.4,43.6,7,43,6.1c-0.6-0.9-1.5-1.3-2.9-1.3c-1.3,0-2.4,0.5-3.4,1.4C35.8,7,35.1,8.5,34.7,10.6z"
				/>
			<path d="M52.2,10.6c0.7-3.3,2.2-5.9,4.4-7.8C58.9,0.9,61.6,0,65,0c3.4,0,5.8,0.9,7.3,2.7c1.5,1.8,1.8,4.4,1.1,7.7
				c-0.5,2.4-1.3,4.3-2.5,5.9c-1.1,1.5-2.5,2.7-4.2,3.6c-1.7,0.8-3.7,1.3-6,1.3c-2.3,0-4.1-0.4-5.5-1.1c-1.4-0.7-2.3-1.9-2.9-3.5
				C51.7,15,51.7,13,52.2,10.6z M58.5,10.6c-0.4,2.1-0.4,3.5,0.2,4.4c0.6,0.9,1.5,1.4,2.8,1.4c1.4,0,2.5-0.4,3.4-1.3
				c0.9-0.9,1.6-2.5,2.1-4.8c0.4-1.9,0.3-3.3-0.3-4.2c-0.6-0.9-1.5-1.3-2.9-1.3c-1.3,0-2.4,0.5-3.4,1.4C59.6,7,58.9,8.5,58.5,10.6z"
				/>
			<path d="M75.7,0.3h6.6l1.5,14.7l7.7-14.7h6.4L85.9,20.8H79L75.7,0.3z"/>
			<path d="M100.1,0.3h6l-0.3,11.4l5.6-11.4h6l0.7,11.4l4.6-11.4h6l-8.8,20.4h-6.2l-0.9-12.9l-6.3,12.9h-6.2L100.1,0.3z"/>
			<path d="M152.9,0.3h11.8c2,0,3.4,0.5,4.2,1.5c0.8,1,1.1,2.2,0.8,3.6c-0.3,1.2-0.9,2.2-1.8,3.1c-0.6,0.6-1.5,1-2.5,1.4
				c1.4,0.4,2.4,1,2.9,1.8c0.5,0.9,0.6,1.9,0.4,3.2c-0.2,1.1-0.7,2-1.4,2.9c-0.7,0.8-1.5,1.5-2.4,2c-0.6,0.3-1.4,0.5-2.5,0.7
				c-1.5,0.2-2.4,0.3-2.9,0.3h-10.9L152.9,0.3z M157.5,8.4h2.7c1,0,1.7-0.2,2.2-0.5c0.5-0.3,0.8-0.8,0.9-1.5c0.1-0.6,0-1.1-0.3-1.4
				c-0.3-0.3-1-0.5-1.9-0.5h-2.8L157.5,8.4z M155.8,16.4h3.2c1.1,0,1.9-0.2,2.4-0.6c0.5-0.4,0.9-0.9,1-1.6c0.1-0.6,0-1.1-0.4-1.5
				c-0.4-0.4-1.1-0.6-2.2-0.6h-3.2L155.8,16.4z"/>
		</g>
		<g>
			<path fill="#0C80C3" d="M126.6,20.7h19.2l1-4.7h-19.2L126.6,20.7z"/>
			<path fill="#5FB146" d="M147.4,8.2h-18.2l-1,4.7h18.2L147.4,8.2z"/>
			<path fill="#F69120" d="M129.9,5.2h19.3l1-4.7h-19.3L129.9,5.2z"/>
		</g>
	</g>
</g>
</svg>
