<svg width="1929" height="304" viewBox="0 0 1929 304" fill="none" xmlns="http://www.w3.org/2000/svg">
<g clip-path="url(#clip0)">
<g clip-path="url(#clip1)">
<path d="M290.042 5.09232C289.767 2.20209 287.427 0 284.538 0H58.017C55.127 0 52.7875 2.20209 52.5123 5.09232L33.5209 234.935C33.2457 238.101 35.7228 240.853 39.0256 240.853H304.492C307.657 240.853 310.272 238.101 309.997 234.935L290.042 5.09232ZM166.048 214.979C126.414 214.979 94.2108 176.167 94.2108 128.684C94.2108 126.207 96.275 124.143 98.7522 124.143C101.229 124.143 103.294 126.207 103.294 128.684C103.294 171.35 131.505 206.033 166.185 206.033C200.865 206.033 229.077 171.35 229.077 128.684C229.077 126.207 231.141 124.143 233.619 124.143C236.096 124.143 238.16 126.207 238.16 128.684C237.885 176.167 205.682 214.979 166.048 214.979ZM259.766 125.932C257.977 127.721 255.225 127.721 253.436 125.932L233.619 106.113L213.526 126.207C212.701 127.033 211.462 127.583 210.361 127.583C209.26 127.583 208.021 127.17 207.196 126.207C205.407 124.418 205.407 121.665 207.196 119.876L230.453 96.6165C231.279 95.7908 232.38 95.2402 233.619 95.2402C234.857 95.2402 235.958 95.6531 236.784 96.6165L259.766 119.601C261.555 121.39 261.555 124.143 259.766 125.932Z" fill="#2291D2"/>
<rect x="65.8691" y="80.1836" width="207.072" height="173.588" fill="white"/>
<path d="M331.054 296.568L308.347 21.3076C308.071 17.7292 305.044 14.9766 301.466 14.9766H41.779C38.2009 14.9766 35.1733 17.7292 34.8981 21.3076L13.0167 296.568C12.7414 300.56 15.9067 304 19.8976 304H324.31C328.301 304 331.467 300.56 331.054 296.568ZM166.049 216.743C126.415 216.743 94.2118 177.931 94.2118 130.448C94.2118 127.971 96.276 125.907 98.7532 125.907C101.23 125.907 103.295 127.971 103.295 130.448C103.295 173.114 131.506 207.797 166.186 207.797C200.866 207.797 229.078 173.114 229.078 130.448C229.078 127.971 231.142 125.907 233.62 125.907C236.097 125.907 238.161 127.971 238.161 130.448C237.886 177.931 205.683 216.743 166.049 216.743ZM259.767 127.696C257.978 129.485 255.226 129.485 253.437 127.696L233.62 107.877L213.527 127.971C212.702 128.797 211.463 129.347 210.362 129.347C209.261 129.347 208.022 128.935 207.197 127.971C205.408 126.182 205.408 123.429 207.197 121.64L230.454 98.3806C231.28 97.5548 232.381 97.0043 233.62 97.0043C234.858 97.0043 235.959 97.4172 236.785 98.3806L259.767 121.365C261.556 123.154 261.556 125.907 259.767 127.696Z" fill="#28A4EA"/>
</g>
<path d="M474.465 180.315V232.43H444.92V88.8056H462.975H474.465H493.341C504.626 88.8056 514.27 90.8574 522.271 94.5506C530.273 98.4489 536.429 103.784 540.737 110.76C544.841 117.736 547.098 125.738 547.098 134.765C547.098 145.024 544.431 153.642 539.096 161.028C533.761 168.414 526.375 173.544 516.732 176.827L555.715 232.43H520.63L486.981 180.315H474.465ZM474.465 156.924H491.495C499.086 156.924 505.242 155.078 509.756 151.385C514.27 147.691 516.527 142.357 516.527 135.586C516.527 128.815 514.27 123.481 509.756 119.787C505.242 116.094 499.086 114.042 491.495 114.042H474.465V156.924ZM589.999 190.984C591.025 198.575 594.103 204.32 599.027 208.014C603.951 211.707 609.901 213.553 616.672 213.553C622.007 213.553 626.521 212.527 630.009 210.271C633.292 208.219 636.164 204.936 638.421 200.627L660.991 208.834C658.118 213.964 654.835 218.478 651.142 222.171C647.449 226.069 642.73 229.147 636.985 231.199C631.24 233.456 624.059 234.481 615.441 234.481C605.593 234.481 596.77 232.43 588.973 228.121C581.177 224.017 575.226 218.067 570.713 210.681C566.199 203.295 564.147 194.677 564.147 185.239C564.147 183.598 564.147 181.751 564.352 180.109C564.352 178.468 564.557 176.621 564.968 174.98C566.814 163.49 572.149 154.052 581.177 146.871C589.999 139.69 601.079 135.996 614.62 135.996C623.853 135.996 632.061 138.048 639.242 141.947C646.423 145.845 651.963 151.385 656.066 158.361C660.17 165.542 662.222 174.159 662.222 184.008V187.086C662.222 188.317 662.016 189.548 661.811 190.984H589.999ZM590.615 174.159H636.164C635.138 168.414 632.881 163.9 629.188 160.618C625.495 157.335 620.571 155.693 614.21 155.693C608.055 155.693 602.72 157.335 598.617 160.618C594.308 163.9 591.641 168.414 590.615 174.159ZM693.368 165.132L683.52 146.666C688.444 144.203 694.394 141.741 701.37 139.279C708.346 136.817 715.938 135.586 724.555 135.586C736.661 135.586 746.509 138.253 754.306 143.383C762.103 148.512 766.001 155.899 766.001 165.542V232.43H740.354V218.888C737.482 224.017 733.378 227.916 727.633 230.583C721.888 233.25 715.528 234.481 708.552 234.481C698.498 234.481 690.291 232.019 684.135 227.095C677.98 222.171 674.902 215.195 674.902 205.962C674.902 196.318 678.596 188.727 685.982 183.187C693.368 177.647 703.217 174.775 715.528 174.775C720.452 174.775 724.966 175.596 729.274 176.827C733.583 178.058 737.276 179.494 740.354 180.93V169.851C740.354 165.747 738.713 162.464 735.43 160.002C732.147 157.745 727.838 156.514 722.709 156.514C715.938 156.514 709.988 157.745 704.653 159.797C699.319 161.849 695.625 163.695 693.368 165.132ZM701.576 204.32C701.576 208.219 703.012 211.091 705.884 213.143C708.757 215.195 712.655 216.016 717.169 216.016C723.53 216.016 729.069 214.579 733.583 211.296C738.097 208.219 740.354 202.679 740.354 194.677V194.472C734.814 191.599 728.249 190.163 720.862 190.163C714.707 190.163 709.783 191.599 706.5 194.062C703.217 196.524 701.576 200.012 701.576 204.32ZM811.216 185.239C811.216 193.446 813.678 200.217 819.012 205.141C824.347 210.271 830.707 212.733 838.299 212.733C844.454 212.733 850.199 211.502 855.534 208.629C860.868 205.757 864.972 202.063 867.639 197.55V224.838C864.356 227.916 860.048 230.378 854.918 232.019C849.584 233.661 843.634 234.481 836.658 234.481C826.399 234.481 817.371 232.43 809.369 228.326C801.367 224.223 795.007 218.478 790.493 211.091C785.979 203.705 783.722 195.087 783.722 185.239C783.722 175.39 785.979 166.773 790.493 159.387C795.007 152 801.367 146.255 809.369 142.152C817.371 138.048 826.399 135.996 836.658 135.996C843.634 135.996 849.584 137.022 854.918 138.664C860.048 140.51 864.356 142.767 867.639 145.435V172.928C864.972 168.414 860.868 164.926 855.329 162.054C849.584 159.181 844.044 157.745 838.299 157.745C833.17 157.745 828.656 158.976 824.552 161.438C820.449 163.9 817.166 167.183 814.704 171.287C812.241 175.39 811.216 180.109 811.216 185.239ZM894.986 105.22H920.838V138.048H937.252V160.618H920.838V232.43H894.986V160.618H878.777V138.048H894.986V105.22ZM1028.3 182.366C1033.02 191.394 1038.15 198.37 1043.69 203.089C1049.23 208.014 1056 210.271 1064 210.271C1070.36 210.271 1075.29 208.834 1078.57 205.962C1081.85 203.089 1083.7 198.781 1083.7 193.446C1083.7 188.932 1082.26 185.034 1079.39 182.161C1076.52 179.289 1072.62 176.621 1068.1 174.57C1063.38 172.518 1058.26 170.261 1052.92 168.209C1049.23 166.978 1045.33 165.132 1041.02 162.875C1036.51 160.823 1032.4 157.95 1028.5 154.668C1024.4 151.385 1021.12 147.281 1018.66 142.357C1015.99 137.433 1014.76 131.688 1014.76 124.917C1014.76 117.12 1016.81 110.349 1020.91 104.604C1025.02 98.8593 1030.56 94.1402 1037.94 90.8574C1045.12 87.5745 1053.33 85.9331 1062.77 85.9331C1072.21 85.9331 1080.41 87.5745 1087.19 90.6522C1093.75 93.935 1099.29 97.8334 1103.6 102.552C1107.7 107.477 1110.78 112.196 1112.83 117.12L1090.26 130.662C1087.19 125.122 1083.7 120.608 1079.59 116.915C1075.49 113.427 1070.16 111.58 1064 111.58C1058.26 111.58 1053.54 113.017 1050.25 115.479C1046.97 118.146 1045.33 121.634 1045.33 126.148C1045.33 129.841 1046.77 133.124 1050.05 135.586C1053.13 138.253 1057.23 140.51 1062.15 142.562C1067.08 144.614 1072.62 146.666 1078.36 148.717C1084.52 150.974 1090.26 153.847 1095.8 157.54C1101.34 161.233 1105.86 165.747 1109.34 171.492C1112.83 177.237 1114.68 184.418 1114.68 192.625C1114.68 206.577 1109.96 217.247 1100.93 224.838C1091.7 232.43 1079.18 236.123 1063.18 236.123C1054.56 236.123 1046.77 234.687 1039.38 231.404C1031.99 228.121 1025.43 223.607 1019.89 217.862C1014.14 212.117 1009.83 205.141 1006.96 197.139L1028.3 182.366ZM1140.24 105.22H1166.09V138.048H1182.5V160.618H1166.09V232.43H1140.24V160.618H1124.03V138.048H1140.24V105.22ZM1217.37 185.239C1217.37 193.241 1219.63 199.601 1224.55 204.526C1229.48 209.45 1235.43 211.912 1242.4 211.912C1249.38 211.912 1255.12 209.45 1260.05 204.526C1264.97 199.601 1267.44 193.241 1267.44 185.239C1267.44 177.237 1264.97 170.877 1260.05 165.952C1255.12 161.028 1249.38 158.566 1242.4 158.566C1235.43 158.566 1229.48 161.028 1224.55 165.952C1219.63 170.877 1217.37 177.237 1217.37 185.239ZM1190.08 185.239C1190.08 175.39 1192.34 166.773 1196.85 159.387C1201.37 152 1207.73 146.255 1215.53 142.152C1223.32 138.048 1232.35 135.996 1242.4 135.996C1252.25 135.996 1261.28 138.048 1269.28 142.152C1277.08 146.255 1283.44 152 1287.95 159.387C1292.47 166.773 1294.93 175.39 1294.93 185.239C1294.93 195.087 1292.47 203.705 1287.95 211.091C1283.44 218.478 1277.08 224.223 1269.28 228.326C1261.28 232.43 1252.25 234.481 1242.4 234.481C1232.35 234.481 1223.32 232.43 1215.53 228.326C1207.73 224.223 1201.37 218.478 1196.85 211.091C1192.34 203.705 1190.08 195.087 1190.08 185.239ZM1368.62 165.952C1366.78 164.311 1364.93 163.08 1363.08 162.054C1361.24 161.233 1358.98 160.618 1356.31 160.618C1351.18 160.618 1347.28 162.669 1344.82 166.568C1342.15 170.466 1340.92 175.801 1340.92 182.572V232.43H1314.66V138.048H1340.92V149.743C1343.8 145.64 1347.08 142.152 1351.18 139.69C1355.08 137.227 1359.18 135.996 1363.49 135.996C1366.78 135.996 1370.06 136.612 1373.34 137.843C1376.42 139.074 1378.88 140.921 1380.73 143.383L1368.62 165.952ZM1411.71 190.984C1412.74 198.575 1415.81 204.32 1420.74 208.014C1425.66 211.707 1431.61 213.553 1438.38 213.553C1443.72 213.553 1448.23 212.527 1451.72 210.271C1455 208.219 1457.87 204.936 1460.13 200.627L1482.7 208.834C1479.83 213.964 1476.55 218.478 1472.85 222.171C1469.16 226.069 1464.44 229.147 1458.7 231.199C1452.95 233.456 1445.77 234.481 1437.15 234.481C1427.3 234.481 1418.48 232.43 1410.68 228.121C1402.89 224.017 1396.94 218.067 1392.42 210.681C1387.91 203.295 1385.86 194.677 1385.86 185.239C1385.86 183.598 1385.86 181.751 1386.06 180.109C1386.06 178.468 1386.27 176.621 1386.68 174.98C1388.52 163.49 1393.86 154.052 1402.89 146.871C1411.71 139.69 1422.79 135.996 1436.33 135.996C1445.56 135.996 1453.77 138.048 1460.95 141.947C1468.13 145.845 1473.67 151.385 1477.78 158.361C1481.88 165.542 1483.93 174.159 1483.93 184.008V187.086C1483.93 188.317 1483.73 189.548 1483.52 190.984H1411.71ZM1412.33 174.159H1457.87C1456.85 168.414 1454.59 163.9 1450.9 160.618C1447.21 157.335 1442.28 155.693 1435.92 155.693C1429.77 155.693 1424.43 157.335 1420.33 160.618C1416.02 163.9 1413.35 168.414 1412.33 174.159ZM1552.83 99.2696C1551.4 97.2179 1549.96 95.9868 1548.32 95.1661C1546.68 94.3454 1545.04 93.935 1543.19 93.935C1540.11 93.935 1537.65 95.1661 1536.01 97.6282C1534.16 100.09 1533.34 103.989 1533.34 109.323V138.048H1555.7V160.618H1533.34V232.43H1507.28V160.618H1496.2V138.048H1507.28V103.168C1507.28 92.4988 1509.95 84.2917 1515.69 78.3416C1521.44 72.5966 1529.65 69.5189 1540.52 69.5189C1546.68 69.5189 1551.6 70.75 1555.29 72.8018C1558.99 75.0587 1562.06 77.1105 1564.12 79.1623L1552.83 99.2696ZM1625.29 165.952C1623.45 164.311 1621.6 163.08 1619.75 162.054C1617.91 161.233 1615.65 160.618 1612.98 160.618C1607.85 160.618 1603.96 162.669 1601.49 166.568C1598.83 170.466 1597.6 175.801 1597.6 182.572V232.43H1571.33V138.048H1597.6V149.743C1600.47 145.64 1603.75 142.152 1607.85 139.69C1611.75 137.227 1615.86 135.996 1620.17 135.996C1623.45 135.996 1626.73 136.612 1630.01 137.843C1633.09 139.074 1635.55 140.921 1637.4 143.383L1625.29 165.952ZM1669.2 185.239C1669.2 193.241 1671.46 199.601 1676.38 204.526C1681.31 209.45 1687.26 211.912 1694.23 211.912C1701.21 211.912 1706.96 209.45 1711.88 204.526C1716.8 199.601 1719.27 193.241 1719.27 185.239C1719.27 177.237 1716.8 170.877 1711.88 165.952C1706.96 161.028 1701.21 158.566 1694.23 158.566C1687.26 158.566 1681.31 161.028 1676.38 165.952C1671.46 170.877 1669.2 177.237 1669.2 185.239ZM1641.91 185.239C1641.91 175.39 1644.17 166.773 1648.68 159.387C1653.2 152 1659.56 146.255 1667.36 142.152C1675.15 138.048 1684.18 135.996 1694.23 135.996C1704.08 135.996 1713.11 138.048 1721.11 142.152C1728.91 146.255 1735.27 152 1739.78 159.387C1744.3 166.773 1746.76 175.39 1746.76 185.239C1746.76 195.087 1744.3 203.705 1739.78 211.091C1735.27 218.478 1728.91 224.223 1721.11 228.326C1713.11 232.43 1704.08 234.481 1694.23 234.481C1684.18 234.481 1675.15 232.43 1667.36 228.326C1659.56 224.223 1653.2 218.478 1648.68 211.091C1644.17 203.705 1641.91 195.087 1641.91 185.239ZM1827.63 174.98C1827.63 168.825 1826.4 164.106 1823.94 160.823C1821.48 157.54 1817.58 155.693 1812.04 155.693C1806.5 155.693 1801.99 157.54 1798.5 160.823C1795.01 164.311 1793.37 169.03 1793.37 174.98V232.43H1766.49V138.048H1793.37V152.411C1796.04 147.486 1799.73 143.383 1804.65 140.51C1809.37 137.638 1815.12 135.996 1821.89 135.996C1832.97 135.996 1841.18 139.074 1846.72 145.229C1852.26 151.385 1855.13 160.412 1855.13 172.108V232.43H1827.63V174.98ZM1885.41 105.22H1911.26V138.048H1927.67V160.618H1911.26V232.43H1885.41V160.618H1869.2V138.048H1885.41V105.22Z" fill="#28A4EA"/>
</g>
<defs>
<clipPath id="clip0">
<rect width="1929" height="304" fill="white"/>
</clipPath>
<clipPath id="clip1">
<rect width="317.841" height="304.411" fill="white" transform="translate(13)"/>
</clipPath>
</defs>
</svg>
